<svg version="1.1" xmlns="http://www.w3.org/2000/svg" xmlns:xlink="http://www.w3.org/1999/xlink" width="30px" height="30px" viewBox="0,0,256,256"><g fill="#ff0000" fill-rule="nonzero" stroke="none" stroke-width="1" stroke-linecap="butt" stroke-linejoin="miter" stroke-miterlimit="10" stroke-dasharray="" stroke-dashoffset="0" font-family="none" font-weight="none" font-size="none" text-anchor="none" style="mix-blend-mode: normal"><g transform="scale(8.53333,8.53333)"><path d="M6,4c-1.105,0 -2,0.895 -2,2v18c0,1.105 0.895,2 2,2h18c1.105,0 2,-0.895 2,-2v-18c0,-1.105 -0.895,-2 -2,-2zM15.12109,10.88867c1.484,0 2.0625,1.62725 2.0625,3.53125c0,1.834 -0.42105,2.90663 -1.12305,3.26563v0.04492c0.459,0.204 0.94695,0.36058 1.37695,0.51758l-0.39844,0.86328c-0.575,-0.235 -1.27042,-0.58566 -1.73242,-0.84766c-0.141,-0.076 -0.24288,-0.13086 -0.29687,-0.13086c-1.284,0 -2.11719,-1.25877 -2.11719,-3.63477c0,-2.107 0.80152,-3.60937 2.22852,-3.60937zM10.18945,10.9082c0.456,0 0.86764,0.13581 1.05664,0.25781l-0.20703,0.96289c-0.192,-0.126 -0.493,-0.24219 -0.875,-0.24219c-0.637,0 -0.9375,0.43342 -0.9375,0.85742c0,0.549 0.28095,0.79867 1.00195,1.26367c0.899,0.582 1.25781,1.26734 1.25781,2.02734c-0.001,1.267 -0.91273,2.07617 -2.17773,2.07617c-0.532,0 -1.0622,-0.14892 -1.2832,-0.29492l0.18945,-0.96484c0.264,0.159 0.7227,0.2832 1.0957,0.2832c0.69,0 1.06836,-0.40442 1.06836,-0.98242c0,-0.572 -0.34873,-0.89397 -0.92773,-1.29297c-0.782,-0.502 -1.33398,-1.2057 -1.33398,-1.9707c0,-1.106 0.75127,-1.98047 2.07227,-1.98047zM19,10.97266h1.11914v6.12695h1.89258v0.94922h-3.01172zM15.05859,11.86523c-0.724,0 -1.00795,1.28009 -1.00195,2.62109c-0.012,1.418 0.24895,2.66992 1.00195,2.66992c0.72,0 0.96094,-1.2505 0.96094,-2.6875c0,-1.333 -0.22094,-2.60352 -0.96094,-2.60352z"></path></g></g></svg>